<svg xmlns="http://www.w3.org/2000/svg" viewBox="0 0 24 24"
     fill="none" stroke="#7C3AED" stroke-width="1.75"
     stroke-linecap="round" stroke-linejoin="round">
  <path d="M8 2v4"/>
      <path d="M16 2v4"/>
      <path d="M5.0 4.0H19.0A2.0 2.0 0 0 1 21.0 6.0V20.0A2.0 2.0 0 0 1 19.0 22.0H5.0A2.0 2.0 0 0 1 3.0 20.0V6.0A2.0 2.0 0 0 1 5.0 4.0Z"/>
      <path d="M3 10h18"/>
      <path d="M8 14h.01"/>
      <path d="M12 14h.01"/>
      <path d="M16 14h.01"/>
      <path d="M8 18h.01"/>
      <path d="M12 18h.01"/>
      <path d="M16 18h.01"/>
</svg>
