<svg xmlns="http://www.w3.org/2000/svg" viewBox="40 90 460 460">
  <path fill="none" stroke="#FCD34D" stroke-linecap="round" stroke-linejoin="round" d="M 279.42 344.66 C 278.62 345.07 276.30 346.49 274.63 347.13 C 272.97 347.78 271.19 348.26 269.41 348.55 C 267.63 348.83 265.77 348.92 263.95 348.82 C 262.12 348.71 260.26 348.41 258.45 347.92 C 256.65 347.43 254.85 346.74 253.14 345.88 C 251.43 345.01 249.76 343.95 248.20 342.74 C 246.64 341.54 245.16 340.14 243.81 338.63 C 242.46 337.11 241.21 335.43 240.11 333.65 C 239.02 331.88 238.05 329.96 237.25 327.98 C 236.44 326.00 235.78 323.91 235.30 321.79 C 234.81 319.67 234.48 317.46 234.32 315.27 C 234.17 313.07 234.18 310.81 234.36 308.60 C 234.54 306.39 234.89 304.15 235.40 301.98 C 235.91 299.81 236.59 297.66 237.42 295.59 C 238.24 293.53 239.23 291.51 240.35 289.60 C 241.47 287.70 242.74 285.86 244.12 284.16 C 245.51 282.46 247.03 280.85 248.64 279.39 C 250.24 277.94 251.98 276.60 253.77 275.42 C 255.57 274.24 257.47 273.19 259.41 272.31 C 261.36 271.43 263.38 270.70 265.43 270.14 C 267.47 269.58 269.58 269.17 271.68 268.93 C 273.78 268.70 275.92 268.62 278.04 268.71 C 280.15 268.80 282.29 269.05 284.38 269.46 C 286.47 269.86 288.55 270.44 290.57 271.15 C 292.60 271.86 294.59 272.74 296.51 273.74 C 298.44 274.74 300.31 275.90 302.10 277.17 C 303.89 278.44 305.61 279.85 307.24 281.36 C 308.86 282.87 310.41 284.51 311.85 286.23 C 313.29 287.95 314.64 289.79 315.88 291.69 C 317.11 293.59 318.25 295.59 319.26 297.64 C 320.28 299.69 321.19 301.82 321.97 303.99 C 322.76 306.15 323.43 308.38 323.99 310.63 C 324.54 312.88 324.97 315.17 325.29 317.47 C 325.60 319.76 325.79 322.09 325.87 324.40 C 325.95 326.72 325.91 329.05 325.76 331.35 C 325.60 333.65 325.33 335.96 324.96 338.22 C 324.58 340.49 324.09 342.74 323.50 344.93 C 322.91 347.13 322.21 349.31 321.42 351.42 C 320.63 353.53 319.74 355.60 318.76 357.61 C 317.78 359.61 316.70 361.57 315.56 363.45 C 314.41 365.33 313.17 367.14 311.86 368.88 C 310.56 370.62 309.17 372.29 307.73 373.87 C 306.29 375.46 304.77 376.97 303.21 378.39 C 301.65 379.81 300.02 381.15 298.35 382.40 C 296.69 383.65 294.97 384.81 293.21 385.89 C 291.46 386.96 289.66 387.95 287.84 388.84 C 286.02 389.73 284.17 390.53 282.30 391.25 C 280.42 391.96 278.52 392.58 276.62 393.11 C 274.71 393.64 272.78 394.08 270.85 394.43 C 268.93 394.78 266.99 395.04 265.05 395.22 C 263.12 395.40 261.18 395.49 259.25 395.49 C 257.32 395.50 255.40 395.42 253.49 395.26 C 251.59 395.10 249.69 394.86 247.81 394.54 C 245.93 394.23 244.07 393.83 242.23 393.36 C 240.40 392.90 238.58 392.35 236.80 391.75 C 235.01 391.14 233.25 390.45 231.52 389.71 C 229.80 388.97 228.10 388.16 226.44 387.29 C 224.78 386.42 223.15 385.49 221.56 384.51 C 219.97 383.52 218.41 382.48 216.90 381.39 C 215.39 380.30 213.91 379.16 212.48 377.97 C 211.05 376.78 209.66 375.54 208.31 374.26 C 206.96 372.99 205.66 371.66 204.40 370.31 C 203.14 368.95 201.92 367.55 200.75 366.13 C 199.58 364.70 198.45 363.23 197.38 361.74 C 196.30 360.25 195.26 358.73 194.27 357.19 C 193.29 355.64 192.34 354.07 191.45 352.48 C 190.55 350.89 189.70 349.27 188.90 347.64 C 188.09 346.01 187.33 344.36 186.62 342.69 C 185.90 341.03 185.24 339.35 184.61 337.66 C 183.99 335.97 183.41 334.27 182.87 332.56 C 182.34 330.85 181.85 329.13 181.40 327.41 C 180.95 325.69 180.55 323.96 180.18 322.23 C 179.82 320.50 179.50 318.76 179.22 317.03 C 178.94 315.29 178.70 313.56 178.50 311.82 C 178.30 310.09 178.14 308.36 178.02 306.63 C 177.89 304.91 177.81 303.18 177.77 301.47 C 177.72 299.75 177.71 298.04 177.74 296.33 C 177.77 294.63 177.84 292.93 177.93 291.24 C 178.03 289.56 178.17 287.88 178.34 286.21 C 178.50 284.54 178.71 282.88 178.94 281.24 C 179.17 279.59 179.44 277.95 179.74 276.33 C 180.04 274.71 180.37 273.10 180.72 271.51 C 181.08 269.91 181.47 268.33 181.89 266.77 C 182.31 265.20 182.76 263.65 183.23 262.11 C 183.71 260.58 184.21 259.05 184.74 257.55 C 185.27 256.05 185.82 254.56 186.41 253.09 C 186.99 251.62 187.60 250.16 188.23 248.73 C 188.86 247.29 189.52 245.87 190.20 244.47 C 190.88 243.07 191.58 241.68 192.31 240.32 C 193.04 238.96 193.79 237.61 194.56 236.28 C 195.34 234.96 196.13 233.65 196.95 232.36 C 197.76 231.07 198.60 229.80 199.46 228.55 C 200.32 227.30 201.20 226.07 202.10 224.86 C 203.00 223.65 203.92 222.46 204.85 221.29 C 205.79 220.12 206.75 218.97 207.73 217.84 C 208.70 216.71 209.70 215.60 210.71 214.51 C 211.73 213.43 212.76 212.36 213.81 211.31 C 214.86 210.27 215.93 209.24 217.02 208.24 C 218.10 207.24 219.21 206.26 220.33 205.30 C 221.45 204.34 222.58 203.40 223.74 202.49 C 224.89 201.57 226.06 200.68 227.25 199.81 C 228.44 198.94 229.64 198.09 230.86 197.27 C 232.08 196.45 233.31 195.65 234.56 194.87 C 235.82 194.09 237.08 193.34 238.37 192.61 C 239.65 191.88 240.95 191.17 242.26 190.49 C 243.57 189.81 244.90 189.16 246.25 188.53 C 247.59 187.90 248.95 187.29 250.32 186.71 C 251.70 186.14 253.08 185.58 254.49 185.06 C 255.89 184.53 257.31 184.03 258.74 183.56 C 260.17 183.09 261.62 182.64 263.08 182.23 C 264.54 181.81 266.01 181.42 267.50 181.06 C 268.99 180.71 270.49 180.38 272.01 180.08 C 273.52 179.78 275.05 179.51 276.59 179.27 C 278.13 179.04 279.69 178.83 281.26 178.66 C 282.82 178.48 284.41 178.34 286.00 178.23 C 287.59 178.13 289.20 178.05 290.81 178.01 C 292.43 177.98 294.06 177.97 295.70 178.00 C 297.34 178.04 298.99 178.10 300.65 178.21 C 302.31 178.32 303.98 178.46 305.66 178.64 C 307.34 178.83 309.04 179.05 310.74 179.31 C 312.44 179.57 314.15 179.87 315.86 180.22 C 317.58 180.56 319.30 180.95 321.03 181.38 C 322.77 181.81 324.51 182.29 326.25 182.81 C 327.99 183.33 329.74 183.89 331.50 184.51 C 333.25 185.12 335.01 185.78 336.77 186.49 C 338.53 187.20 340.29 187.95 342.06 188.76 C 343.82 189.57 345.59 190.43 347.35 191.34 C 349.12 192.26 350.88 193.22 352.64 194.24 C 354.40 195.26 356.16 196.33 357.91 197.46 C 359.66 198.59 361.41 199.77 363.15 201.01 C 364.89 202.26 366.62 203.56 368.34 204.92 C 370.06 206.28 371.77 207.70 373.46 209.18 C 375.16 210.66 376.84 212.20 378.51 213.80 C 380.17 215.41 381.82 217.07 383.45 218.80 C 385.08 220.53 386.69 222.33 388.27 224.19 C 389.85 226.05 391.41 227.97 392.94 229.96 C 394.47 231.95 395.98 234.01 397.45 236.13 C 398.92 238.25 400.36 240.44 401.75 242.70 C 403.15 244.96 404.52 247.28 405.83 249.68 C 407.15 252.07 408.43 254.53 409.66 257.05 C 410.89 259.58 412.07 262.18 413.20 264.84 C 414.33 267.50 415.41 270.23 416.42 273.02 C 417.44 275.81 418.40 278.67 419.29 281.59 C 420.18 284.52 421.01 287.51 421.76 290.55 C 422.52 293.60 423.20 296.72 423.81 299.89 C 424.41 303.06 424.94 306.29 425.39 309.57 C 425.83 312.86 426.19 316.20 426.46 319.59 C 426.72 322.98 426.90 326.43 426.98 329.92 C 427.05 333.41 427.04 336.95 426.91 340.53 C 426.78 344.10 426.55 347.73 426.21 351.38 C 425.86 355.03 425.41 358.72 424.83 362.43 C 424.25 366.14 423.56 369.89 422.74 373.64 C 421.92 377.39 420.98 381.17 419.90 384.95 C 418.82 388.73 417.62 392.52 416.27 396.30 C 414.93 400.08 413.45 403.87 411.82 407.63 C 410.19 411.39 408.43 415.15 406.51 418.87 C 404.60 422.58 402.54 426.28 400.32 429.92 C 398.11 433.56 395.75 437.17 393.23 440.71 C 390.71 444.25 388.05 447.74 385.22 451.14 C 382.40 454.55 377.77 459.46 376.28 461.12" style="stroke-width:4.2;opacity:0.34"/>
</svg>
