<svg xmlns="http://www.w3.org/2000/svg" viewBox="40 90 460 460">
  <path fill="none" stroke="#FB923C" stroke-linecap="round" stroke-linejoin="round" d="M 249.35 338.80 C 248.65 338.03 246.38 335.88 245.12 334.18 C 243.86 332.48 242.73 330.58 241.80 328.60 C 240.87 326.63 240.11 324.48 239.55 322.31 C 239.00 320.14 238.63 317.84 238.48 315.56 C 238.33 313.28 238.38 310.92 238.64 308.63 C 238.90 306.33 239.37 304.00 240.03 301.78 C 240.70 299.55 241.57 297.34 242.62 295.27 C 243.67 293.21 244.92 291.20 246.31 289.36 C 247.70 287.53 249.28 285.80 250.97 284.26 C 252.65 282.72 254.51 281.32 256.44 280.13 C 258.37 278.94 260.43 277.93 262.54 277.13 C 264.65 276.33 266.86 275.72 269.08 275.33 C 271.29 274.95 273.58 274.77 275.84 274.80 C 278.10 274.84 280.39 275.10 282.62 275.55 C 284.86 276.01 287.09 276.69 289.24 277.55 C 291.38 278.41 293.49 279.49 295.49 280.73 C 297.49 281.97 299.42 283.41 301.22 285.00 C 303.02 286.58 304.73 288.35 306.28 290.23 C 307.84 292.11 309.27 294.16 310.55 296.29 C 311.83 298.42 312.97 300.68 313.93 303.01 C 314.90 305.33 315.72 307.77 316.37 310.23 C 317.01 312.69 317.49 315.24 317.80 317.78 C 318.11 320.33 318.25 322.93 318.22 325.50 C 318.19 328.07 317.99 330.66 317.64 333.20 C 317.28 335.74 316.75 338.28 316.07 340.75 C 315.40 343.21 314.56 345.64 313.58 347.98 C 312.60 350.32 311.47 352.60 310.22 354.77 C 308.97 356.94 307.57 359.04 306.08 361.01 C 304.58 362.98 302.95 364.85 301.23 366.59 C 299.52 368.33 297.68 369.96 295.78 371.44 C 293.89 372.92 291.89 374.28 289.84 375.49 C 287.79 376.70 285.66 377.77 283.50 378.69 C 281.34 379.61 279.11 380.39 276.87 381.02 C 274.63 381.65 272.34 382.13 270.06 382.46 C 267.77 382.79 265.46 382.98 263.16 383.02 C 260.86 383.06 258.55 382.95 256.28 382.70 C 254.00 382.46 251.72 382.06 249.49 381.54 C 247.26 381.02 245.05 380.36 242.89 379.58 C 240.74 378.80 238.62 377.88 236.56 376.86 C 234.50 375.83 232.48 374.68 230.54 373.43 C 228.61 372.18 226.72 370.81 224.92 369.35 C 223.11 367.90 221.38 366.33 219.72 364.70 C 218.07 363.06 216.49 361.32 215.01 359.52 C 213.52 357.72 212.11 355.83 210.80 353.89 C 209.48 351.95 208.25 349.94 207.12 347.88 C 205.98 345.83 204.94 343.71 203.99 341.56 C 203.04 339.41 202.18 337.21 201.42 334.99 C 200.66 332.77 199.99 330.51 199.41 328.24 C 198.84 325.97 198.35 323.67 197.97 321.37 C 197.58 319.07 197.28 316.75 197.07 314.43 C 196.86 312.12 196.75 309.80 196.72 307.49 C 196.69 305.19 196.75 302.88 196.89 300.60 C 197.03 298.31 197.26 296.04 197.57 293.79 C 197.88 291.55 198.27 289.32 198.73 287.12 C 199.19 284.93 199.74 282.76 200.35 280.62 C 200.96 278.49 201.64 276.39 202.39 274.33 C 203.14 272.28 203.96 270.25 204.84 268.28 C 205.72 266.31 206.67 264.37 207.67 262.49 C 208.67 260.61 209.73 258.77 210.83 256.99 C 211.94 255.20 213.11 253.47 214.32 251.79 C 215.52 250.11 216.78 248.48 218.08 246.91 C 219.38 245.34 220.73 243.82 222.10 242.36 C 223.48 240.90 224.90 239.50 226.35 238.15 C 227.80 236.81 229.29 235.52 230.80 234.29 C 232.31 233.07 233.85 231.90 235.42 230.78 C 236.98 229.67 238.58 228.62 240.18 227.63 C 241.79 226.63 243.43 225.70 245.07 224.82 C 246.72 223.94 248.38 223.13 250.06 222.36 C 251.73 221.60 253.42 220.90 255.12 220.25 C 256.82 219.60 258.52 219.01 260.24 218.48 C 261.95 217.94 263.67 217.46 265.39 217.04 C 267.11 216.61 268.84 216.24 270.56 215.92 C 272.28 215.60 274.01 215.34 275.73 215.12 C 277.46 214.91 279.18 214.75 280.89 214.63 C 282.61 214.52 284.32 214.46 286.02 214.44 C 287.73 214.42 289.43 214.46 291.12 214.53 C 292.80 214.61 294.48 214.74 296.15 214.91 C 297.82 215.08 299.48 215.29 301.13 215.55 C 302.77 215.81 304.41 216.11 306.03 216.45 C 307.65 216.79 309.26 217.17 310.85 217.60 C 312.44 218.02 314.02 218.48 315.58 218.98 C 317.14 219.48 318.69 220.02 320.21 220.59 C 321.74 221.16 323.25 221.77 324.75 222.42 C 326.24 223.06 327.71 223.74 329.17 224.46 C 330.63 225.17 332.06 225.91 333.48 226.69 C 334.90 227.47 336.30 228.28 337.67 229.12 C 339.05 229.95 340.41 230.82 341.75 231.72 C 343.09 232.62 344.40 233.55 345.70 234.50 C 346.99 235.46 348.27 236.44 349.52 237.45 C 350.77 238.46 352.00 239.50 353.21 240.56 C 354.42 241.62 355.61 242.70 356.77 243.81 C 357.94 244.93 359.08 246.06 360.20 247.22 C 361.32 248.38 362.42 249.56 363.49 250.76 C 364.57 251.97 365.62 253.19 366.64 254.44 C 367.67 255.69 368.68 256.96 369.66 258.25 C 370.64 259.54 371.60 260.85 372.53 262.18 C 373.46 263.51 374.37 264.86 375.26 266.23 C 376.14 267.60 377.00 268.99 377.84 270.39 C 378.68 271.80 379.49 273.23 380.28 274.67 C 381.06 276.12 381.83 277.58 382.56 279.06 C 383.30 280.54 384.01 282.03 384.70 283.55 C 385.39 285.06 386.05 286.59 386.68 288.14 C 387.32 289.68 387.93 291.25 388.51 292.83 C 389.09 294.40 389.65 296.00 390.18 297.61 C 390.71 299.22 391.21 300.84 391.69 302.48 C 392.16 304.12 392.61 305.78 393.03 307.45 C 393.45 309.12 393.84 310.80 394.20 312.50 C 394.56 314.20 394.90 315.91 395.20 317.63 C 395.50 319.36 395.78 321.10 396.02 322.85 C 396.27 324.60 396.48 326.36 396.67 328.14 C 396.85 329.92 397.00 331.71 397.12 333.51 C 397.24 335.31 397.33 337.12 397.39 338.94 C 397.44 340.77 397.46 342.60 397.45 344.45 C 397.44 346.29 397.40 348.15 397.32 350.01 C 397.24 351.88 397.12 353.75 396.97 355.64 C 396.82 357.52 396.63 359.41 396.41 361.31 C 396.19 363.21 395.93 365.12 395.63 367.04 C 395.33 368.95 394.99 370.87 394.61 372.80 C 394.23 374.73 393.82 376.66 393.36 378.60 C 392.90 380.54 392.40 382.48 391.86 384.42 C 391.32 386.37 390.73 388.32 390.11 390.27 C 389.48 392.21 388.81 394.17 388.09 396.12 C 387.38 398.07 386.61 400.02 385.81 401.97 C 385.00 403.91 384.14 405.86 383.24 407.80 C 382.34 409.74 381.39 411.68 380.39 413.61 C 379.39 415.54 378.34 417.46 377.24 419.38 C 376.14 421.29 374.99 423.20 373.79 425.09 C 372.58 426.98 371.33 428.86 370.02 430.73 C 368.71 432.59 367.35 434.45 365.93 436.28 C 364.52 438.11 363.05 439.92 361.52 441.72 C 359.99 443.51 358.41 445.28 356.77 447.02 C 355.13 448.77 353.43 450.49 351.68 452.18 C 349.92 453.87 348.11 455.53 346.24 457.15 C 344.37 458.78 342.44 460.37 340.45 461.92 C 338.46 463.47 336.42 464.99 334.31 466.46 C 332.21 467.92 330.04 469.35 327.82 470.73 C 325.59 472.10 323.31 473.43 320.97 474.70 C 318.62 475.97 316.22 477.20 313.76 478.35 C 311.30 479.50 308.79 480.60 306.21 481.63 C 303.64 482.66 301.01 483.62 298.32 484.51 C 295.63 485.40 292.89 486.22 290.09 486.95 C 287.30 487.68 284.45 488.34 281.55 488.91 C 278.65 489.47 275.70 489.96 272.70 490.34 C 269.71 490.73 266.66 491.03 263.57 491.22 C 260.49 491.41 257.35 491.50 254.18 491.48 C 251.01 491.46 247.80 491.34 244.56 491.09 C 241.32 490.85 238.04 490.49 234.73 490.01 C 231.43 489.53 228.10 488.93 224.75 488.19 C 221.40 487.45 218.02 486.59 214.64 485.59 C 211.26 484.58 207.86 483.45 204.46 482.17 C 201.06 480.88 197.65 479.46 194.26 477.89 C 190.87 476.31 187.47 474.59 184.10 472.71 C 180.73 470.83 177.37 468.80 174.05 466.60 C 170.73 464.41 167.43 462.06 164.18 459.54 C 160.93 457.03 157.71 454.35 154.56 451.51 C 151.42 448.66 148.31 445.65 145.29 442.48 C 142.27 439.30 139.31 435.96 136.44 432.45 C 133.58 428.94 130.79 425.26 128.13 421.42 C 125.46 417.58 122.88 413.57 120.43 409.41 C 117.99 405.24 114.63 398.59 113.47 396.43" style="stroke-width:1.6;opacity:0.42"/>
</svg>
