<svg xmlns="http://www.w3.org/2000/svg" viewBox="40 90 460 460">
  <path fill="none" stroke="#FDBA74" stroke-linecap="round" stroke-linejoin="round" d="M 291.89 320.42 C 291.89 321.33 292.06 324.08 291.87 325.91 C 291.67 327.75 291.28 329.63 290.71 331.42 C 290.14 333.21 289.37 335.00 288.44 336.66 C 287.52 338.31 286.39 339.92 285.14 341.35 C 283.88 342.79 282.45 344.13 280.92 345.28 C 279.39 346.42 277.70 347.43 275.95 348.22 C 274.21 349.02 272.33 349.64 270.44 350.04 C 268.55 350.44 266.56 350.65 264.60 350.63 C 262.64 350.61 260.63 350.38 258.67 349.94 C 256.72 349.50 254.75 348.84 252.88 347.98 C 251.01 347.13 249.16 346.05 247.45 344.81 C 245.73 343.57 244.08 342.12 242.58 340.53 C 241.08 338.93 239.68 337.15 238.45 335.27 C 237.22 333.38 236.11 331.33 235.20 329.21 C 234.28 327.09 233.52 324.83 232.95 322.54 C 232.38 320.25 231.98 317.86 231.77 315.47 C 231.56 313.09 231.54 310.63 231.70 308.22 C 231.86 305.80 232.22 303.36 232.74 300.99 C 233.27 298.62 233.99 296.26 234.87 293.99 C 235.75 291.73 236.81 289.51 238.02 287.42 C 239.22 285.33 240.60 283.31 242.10 281.44 C 243.60 279.57 245.26 277.80 247.01 276.20 C 248.76 274.60 250.66 273.12 252.62 271.83 C 254.59 270.53 256.67 269.38 258.80 268.41 C 260.92 267.45 263.14 266.65 265.39 266.03 C 267.63 265.42 269.94 264.98 272.25 264.72 C 274.55 264.47 276.90 264.39 279.23 264.50 C 281.55 264.60 283.89 264.89 286.19 265.35 C 288.48 265.81 290.77 266.45 292.99 267.25 C 295.21 268.05 297.40 269.03 299.50 270.15 C 301.61 271.27 303.66 272.55 305.62 273.97 C 307.57 275.38 309.46 276.95 311.24 278.63 C 313.01 280.31 314.70 282.13 316.27 284.05 C 317.84 285.96 319.30 288.00 320.64 290.11 C 321.99 292.22 323.21 294.44 324.31 296.71 C 325.41 298.98 326.38 301.35 327.23 303.74 C 328.07 306.14 328.78 308.61 329.36 311.09 C 329.94 313.58 330.39 316.11 330.71 318.65 C 331.03 321.19 331.21 323.76 331.27 326.31 C 331.32 328.86 331.25 331.43 331.05 333.97 C 330.85 336.51 330.52 339.05 330.07 341.54 C 329.62 344.03 329.05 346.51 328.37 348.93 C 327.69 351.34 326.89 353.73 325.98 356.05 C 325.08 358.37 324.06 360.64 322.95 362.84 C 321.85 365.03 320.63 367.17 319.33 369.23 C 318.04 371.28 316.64 373.27 315.18 375.17 C 313.71 377.07 312.16 378.89 310.54 380.61 C 308.92 382.34 307.23 383.98 305.48 385.52 C 303.73 387.07 301.91 388.52 300.05 389.87 C 298.19 391.23 296.27 392.48 294.32 393.64 C 292.37 394.80 290.37 395.85 288.34 396.81 C 286.32 397.77 284.25 398.62 282.17 399.38 C 280.09 400.13 277.98 400.79 275.86 401.34 C 273.74 401.90 271.60 402.35 269.46 402.71 C 267.32 403.07 265.17 403.33 263.03 403.49 C 260.89 403.66 258.74 403.72 256.60 403.70 C 254.47 403.67 252.34 403.55 250.23 403.35 C 248.11 403.14 246.01 402.84 243.94 402.46 C 241.86 402.08 239.80 401.61 237.77 401.07 C 235.74 400.52 233.74 399.89 231.76 399.19 C 229.79 398.49 227.85 397.70 225.94 396.85 C 224.03 396.00 222.16 395.08 220.32 394.09 C 218.49 393.10 216.69 392.04 214.94 390.93 C 213.18 389.81 211.47 388.63 209.80 387.39 C 208.13 386.16 206.51 384.86 204.93 383.52 C 203.35 382.18 201.82 380.78 200.33 379.34 C 198.85 377.90 197.41 376.41 196.03 374.88 C 194.64 373.35 193.30 371.78 192.01 370.17 C 190.73 368.56 189.49 366.91 188.30 365.23 C 187.12 363.56 185.98 361.84 184.90 360.10 C 183.81 358.36 182.78 356.59 181.80 354.80 C 180.82 353.01 179.89 351.19 179.01 349.35 C 178.13 347.52 177.30 345.66 176.53 343.78 C 175.75 341.91 175.02 340.02 174.34 338.11 C 173.67 336.21 173.04 334.29 172.46 332.36 C 171.89 330.44 171.36 328.50 170.88 326.56 C 170.40 324.61 169.97 322.66 169.59 320.71 C 169.20 318.75 168.87 316.79 168.58 314.83 C 168.29 312.88 168.05 310.91 167.85 308.95 C 167.65 307.00 167.50 305.04 167.39 303.08 C 167.28 301.13 167.22 299.17 167.20 297.23 C 167.18 295.28 167.20 293.34 167.27 291.41 C 167.33 289.48 167.44 287.55 167.59 285.64 C 167.73 283.72 167.92 281.82 168.15 279.92 C 168.37 278.03 168.64 276.14 168.95 274.27 C 169.25 272.40 169.59 270.54 169.97 268.69 C 170.35 266.85 170.77 265.01 171.22 263.20 C 171.67 261.38 172.16 259.58 172.69 257.79 C 173.21 256.01 173.77 254.24 174.36 252.48 C 174.95 250.73 175.58 249.00 176.24 247.28 C 176.90 245.56 177.59 243.86 178.31 242.18 C 179.03 240.50 179.79 238.84 180.57 237.20 C 181.36 235.56 182.18 233.94 183.02 232.34 C 183.87 230.74 184.75 229.16 185.65 227.60 C 186.56 226.05 187.49 224.51 188.46 223.00 C 189.42 221.48 190.41 219.99 191.43 218.52 C 192.45 217.05 193.50 215.60 194.57 214.18 C 195.64 212.76 196.75 211.36 197.87 209.99 C 199.00 208.61 200.15 207.26 201.33 205.94 C 202.51 204.61 203.72 203.31 204.95 202.04 C 206.18 200.76 207.44 199.51 208.72 198.29 C 210.00 197.07 211.31 195.87 212.64 194.71 C 213.97 193.54 215.32 192.40 216.70 191.28 C 218.08 190.17 219.48 189.08 220.91 188.03 C 222.33 186.97 223.78 185.94 225.25 184.95 C 226.73 183.95 228.22 182.98 229.74 182.04 C 231.26 181.11 232.80 180.20 234.36 179.33 C 235.93 178.45 237.51 177.61 239.12 176.80 C 240.73 175.99 242.36 175.21 244.01 174.47 C 245.66 173.73 247.33 173.02 249.03 172.35 C 250.72 171.67 252.43 171.04 254.17 170.43 C 255.90 169.83 257.66 169.27 259.44 168.74 C 261.21 168.22 263.01 167.73 264.83 167.28 C 266.64 166.83 268.48 166.42 270.33 166.05 C 272.18 165.68 274.06 165.35 275.95 165.07 C 277.84 164.78 279.75 164.54 281.68 164.34 C 283.60 164.15 285.55 163.99 287.51 163.89 C 289.47 163.78 291.45 163.72 293.44 163.71 C 295.44 163.69 297.45 163.73 299.47 163.82 C 301.49 163.90 303.53 164.04 305.58 164.23 C 307.63 164.42 309.70 164.66 311.77 164.95 C 313.85 165.25 315.93 165.60 318.03 166.00 C 320.13 166.41 322.24 166.87 324.35 167.40 C 326.47 167.92 328.59 168.50 330.72 169.14 C 332.86 169.79 334.99 170.49 337.13 171.26 C 339.27 172.02 341.42 172.85 343.57 173.75 C 345.71 174.65 347.86 175.61 350.01 176.64 C 352.16 177.67 354.31 178.77 356.45 179.94 C 358.59 181.11 360.73 182.35 362.86 183.66 C 364.99 184.98 367.12 186.36 369.23 187.82 C 371.34 189.28 373.44 190.82 375.53 192.43 C 377.61 194.05 379.69 195.74 381.74 197.50 C 383.79 199.27 385.82 201.12 387.83 203.05 C 389.84 204.98 391.83 206.99 393.78 209.08 C 395.74 211.17 397.67 213.35 399.56 215.60 C 401.45 217.86 403.31 220.20 405.13 222.63 C 406.94 225.05 408.72 227.56 410.45 230.16 C 412.18 232.75 413.87 235.43 415.50 238.20 C 417.13 240.96 418.72 243.81 420.24 246.74 C 421.75 249.68 423.22 252.70 424.61 255.80 C 426.00 258.90 427.33 262.09 428.58 265.36 C 429.83 268.62 431.01 271.98 432.10 275.40 C 433.19 278.83 434.21 282.34 435.13 285.93 C 436.04 289.51 436.88 293.18 437.61 296.91 C 438.33 300.65 438.97 304.46 439.49 308.33 C 440.01 312.20 440.43 316.15 440.73 320.15 C 441.02 324.15 441.21 328.22 441.26 332.34 C 441.31 336.46 441.25 340.64 441.04 344.85 C 440.83 349.07 440.50 353.34 440.02 357.64 C 439.53 361.94 438.91 366.29 438.13 370.65 C 437.35 375.01 436.43 379.40 435.34 383.80 C 434.25 388.20 433.01 392.62 431.60 397.03 C 430.18 401.44 428.61 405.87 426.85 410.26 C 425.10 414.65 423.18 419.04 421.07 423.38 C 418.97 427.72 416.69 432.05 414.22 436.31 C 411.75 440.56 409.10 444.79 406.27 448.92 C 403.43 453.05 400.41 457.13 397.20 461.10 C 393.99 465.07 390.59 468.97 387.00 472.73 C 383.42 476.49 379.64 480.15 375.68 483.66 C 371.73 487.16 365.33 492.07 363.26 493.75" style="stroke-width:2.4;opacity:0.5"/>
</svg>
